<svg xmlns="http://www.w3.org/2000/svg" width="24" height="24" viewBox="0 0 24 24" fill="none" stroke="#FFFFFF" stroke-width="1.5" stroke-linecap="round" stroke-linejoin="round">
  <path d="M12 22V12"/>
  <path d="M12 12L9 9"/>
  <path d="M12 12L15 9"/>
  <path d="M12 12H6.5A2.5 2.5 0 0 0 4 14.5V19.5A2.5 2.5 0 0 0 6.5 22H12"/>
  <path d="M12 12H17.5A2.5 2.5 0 0 1 20 14.5V19.5A2.5 2.5 0 0 1 17.5 22H12"/>
  <path d="M12 12C14.7614 12 17 9.76142 17 7C17 4.23858 14.7614 2 12 2C9.23858 2 7 4.23858 7 7C7 9.76142 9.23858 12 12 12Z"/>
  <path d="M9 22V19"/>
  <path d="M15 22V19"/>
  <path d="M6 16H4"/>
  <path d="M20 16H18"/>
</svg>
